<svg width="256" height="256" viewBox="0 0 256 256" fill="none" xmlns="http://www.w3.org/2000/svg">
<g clip-path="url(#clip0_37_296)">
<path d="M0 80L4.19629e-06 176C6.12728e-06 220.176 35.824 256 80 256H176C220.176 256 256 220.176 256 176V80C256 35.824 220.176 -1.93098e-06 176 0L80 4.19627e-06C35.824 6.12728e-06 -1.93103e-06 35.824 0 80ZM176 24C206.88 24 232 49.12 232 80V176C232 206.88 206.88 232 176 232H80C49.12 232 24 206.88 24 176V80C24 49.12 49.12 24 80 24H176Z" fill="#EEE1E1"/>
<path d="M64 128C64 163.344 92.6558 192 128 192C163.344 192 192 163.344 192 128C192 92.6558 163.344 64 128 64C92.6558 64 64 92.6558 64 128ZM168 128C168 150.048 150.048 168 128 168C105.936 168 88 150.048 88 128C88 105.952 105.936 88 128 88C150.048 88 168 105.952 168 128Z" fill="#EEE1E1"/>
<path d="M67.7278 59.197C67.7278 54.4871 63.9097 50.6689 59.1998 50.6689C54.4899 50.6689 50.6719 54.4871 50.6719 59.197C50.6719 63.9069 54.4899 67.7249 59.1998 67.7249C63.9097 67.7249 67.7278 63.9069 67.7278 59.197Z" fill="#EEE1E1"/>
</g>
<defs>
<clipPath id="clip0_37_296">
<rect width="256" height="256" fill="white"/>
</clipPath>
</defs>
</svg>
