<svg width="256" height="256" viewBox="0 0 256 256" fill="none" xmlns="http://www.w3.org/2000/svg">
<g clip-path="url(#clip0_37_288)">
<path d="M128 256C198.71 256 256 198.71 256 128C256 57.2907 198.71 0 128 0C57.2907 0 0 57.2907 0 128C0 198.71 57.2907 256 128 256ZM58.5707 125.227L181.984 77.6427C187.712 75.5733 192.714 79.04 190.858 87.7013L190.869 87.6902L169.856 186.688C168.299 193.707 164.128 195.413 158.293 192.107L126.293 168.522L110.858 183.392C109.152 185.099 107.712 186.539 104.405 186.539L106.678 153.974L165.984 100.395C168.565 98.1222 165.408 96.8431 162.005 99.1044L88.7151 145.248L57.12 135.392C50.2613 133.216 50.112 128.533 58.5707 125.227Z" fill="#EEE1E1"/>
</g>
<defs>
<clipPath id="clip0_37_288">
<rect width="256" height="256" fill="white"/>
</clipPath>
</defs>
</svg>
